<svg width="64" height="64" viewBox="0 0 64 64" fill="none" xmlns="http://www.w3.org/2000/svg">
<path fill-rule="evenodd" clip-rule="evenodd" d="M33.3852 6.71905C34.7241 5.38011 36.895 5.38011 38.2339 6.71905L61.0913 29.5762C61.734 30.2192 62.0952 31.0913 62.0952 32.0006C62.0952 32.9099 61.734 33.782 61.0913 34.4249L38.2339 57.2819C36.895 58.6209 34.7241 58.6209 33.3852 57.2819C32.0462 55.943 32.0462 53.7724 33.3852 52.4335L50.3896 35.4291H5.33337C3.43981 35.4291 1.90479 33.8941 1.90479 32.0006C1.90479 30.107 3.43981 28.572 5.33337 28.572H50.3896L33.3852 11.5678C32.0462 10.2289 32.0462 8.05799 33.3852 6.71905Z" fill="white"/>
</svg>
