<svg width="64" height="64" viewBox="0 0 64 64" fill="none" xmlns="http://www.w3.org/2000/svg">
<g clip-path="url(#clip0_1_6)">
<path fill-rule="evenodd" clip-rule="evenodd" d="M14.5124 0H2.87765L0.0426131 43.8253C-0.128985 46.4087 0.218863 49.0007 1.06455 51.4404C1.91024 53.8801 3.2357 56.1153 4.95864 58.0072C6.68157 59.8991 8.76518 61.4074 11.0801 62.4383C13.3949 63.4692 15.8916 64.0008 18.4151 64H45.5873C48.1075 64.0005 50.6009 63.47 52.9132 62.4413C55.2254 61.4127 57.3072 59.9079 59.0296 58.0201C60.752 56.1323 62.0783 53.9017 62.9264 51.4665C63.7744 49.0313 64.1262 46.4434 63.9599 43.863L61.088 0H14.5124ZM14.5124 3.77804H6.33861L3.72448 44.0897C3.5883 46.1552 3.86715 48.2274 4.54373 50.1777C5.22031 52.128 6.28019 53.9149 7.65764 55.4275C9.03508 56.9402 10.7007 58.1462 12.5512 58.971C14.4017 59.7957 16.3976 60.2215 18.4151 60.222H45.5873C47.6079 60.2267 49.6079 59.8047 51.4627 58.9823C53.3176 58.1598 54.9877 56.9545 56.3691 55.4414C57.7505 53.9282 58.8137 52.1395 59.4925 50.1866C60.1713 48.2337 60.4512 46.1584 60.3148 44.0897L57.6639 3.77804H49.4901V6.15821C49.4901 8.51487 49.0377 10.8485 48.1589 13.0257C47.28 15.203 45.9917 17.1813 44.3677 18.8477C42.7437 20.5141 40.8158 21.836 38.6939 22.7379C36.5721 23.6397 34.2979 24.1039 32.0012 24.1039C29.7046 24.1039 27.4304 23.6397 25.3085 22.7379C23.1867 21.836 21.2587 20.5141 19.6347 18.8477C18.0107 17.1813 16.7225 15.203 15.8436 13.0257C14.9647 10.8485 14.5124 8.51487 14.5124 6.15821V3.77804ZM45.8082 3.77804H18.1942V6.15821C18.1942 9.9157 19.6489 13.5193 22.2382 16.1762C24.8275 18.8332 28.3394 20.3259 32.0012 20.3259C35.6631 20.3259 39.175 18.8332 41.7643 16.1762C44.3536 13.5193 45.8082 9.9157 45.8082 6.15821V3.77804Z" fill="black"/>
</g>
<defs>
<clipPath id="clip0_1_6">
<rect width="64" height="64" fill="white"/>
</clipPath>
</defs>
</svg>
